<svg width="277" height="53" viewBox="0 0 277 53" fill="none" xmlns="http://www.w3.org/2000/svg">
<mask id="path-1-inside-1_1284_5335" fill="white">
<path fill-rule="evenodd" clip-rule="evenodd" d="M23 0C10.2975 0 0 10.2975 0 23C0 35.7025 10.2975 46 23 46H130.917L139 53L147.083 46H254C266.703 46 277 35.7025 277 23C277 10.2975 266.703 0 254 0H23Z"/>
</mask>
<path d="M130.917 46L131.572 45.2441L131.29 45H130.917V46ZM139 53L138.345 53.7559L139 54.3229L139.655 53.7559L139 53ZM147.083 46V45H146.71L146.428 45.2441L147.083 46ZM1 23C1 10.8497 10.8497 1 23 1V-1C9.74517 -1 -1 9.74517 -1 23H1ZM23 45C10.8497 45 1 35.1503 1 23H-1C-1 36.2548 9.74517 47 23 47V45ZM130.917 45H23V47H130.917V45ZM139.655 52.2441L131.572 45.2441L130.262 46.7559L138.345 53.7559L139.655 52.2441ZM146.428 45.2441L138.345 52.2441L139.655 53.7559L147.738 46.7559L146.428 45.2441ZM254 45H147.083V47H254V45ZM276 23C276 35.1503 266.15 45 254 45V47C267.255 47 278 36.2548 278 23H276ZM254 1C266.15 1 276 10.8497 276 23H278C278 9.74517 267.255 -1 254 -1V1ZM23 1H254V-1H23V1Z" fill="#7889A0" mask="url(#path-1-inside-1_1284_5335)"/>
</svg>
